<svg width="1440" height="809" viewBox="0 0 1440 809" fill="none" xmlns="http://www.w3.org/2000/svg">
<g filter="url(#filter0_d_185:139)">
<mask id="mask0_185:139" style="mask-type:alpha" maskUnits="userSpaceOnUse" x="0" y="0" width="1440" height="801">
<rect width="1440" height="801" fill="white"/>
</mask>
<g mask="url(#mask0_185:139)">
<g filter="url(#filter1_f_185:139)">
<circle cx="1232" cy="297" r="184" fill="#FF3445"/>
</g>
<g filter="url(#filter2_f_185:139)">
<circle cx="792" cy="116" r="184" fill="#007AFF"/>
</g>
<g filter="url(#filter3_f_185:139)">
<circle cx="204" cy="327" r="184" fill="#22347B"/>
</g>
<g filter="url(#filter4_f_185:139)">
<circle cx="640" cy="652" r="184" fill="#22347B"/>
</g>
<g filter="url(#filter5_f_185:139)">
<circle cx="136" cy="777" r="184" fill="#007AFF"/>
</g>
<g filter="url(#filter6_f_185:139)">
<circle cx="1373" cy="832" r="184" fill="#FFB106"/>
</g>
<path d="M916.39 295.2C917.342 295.2 918.201 295.415 918.966 295.844C919.741 296.264 920.347 296.847 920.786 297.594C921.225 298.341 921.444 299.176 921.444 300.1C921.444 301.024 921.22 301.859 920.772 302.606C920.333 303.353 919.727 303.941 918.952 304.37C918.177 304.79 917.309 305 916.348 305H912.4V295.2H916.39ZM916.418 303.782C917.099 303.782 917.715 303.623 918.266 303.306C918.826 302.989 919.265 302.55 919.582 301.99C919.909 301.43 920.072 300.805 920.072 300.114C920.072 299.414 919.909 298.784 919.582 298.224C919.255 297.664 918.807 297.225 918.238 296.908C917.678 296.581 917.053 296.418 916.362 296.418H913.744V303.782H916.418ZM926.207 297.552C927.355 297.552 928.223 297.893 928.811 298.574C929.399 299.246 929.693 300.184 929.693 301.388C929.693 301.575 929.688 301.715 929.679 301.808H923.827C923.93 302.471 924.205 302.998 924.653 303.39C925.11 303.782 925.67 303.978 926.333 303.978C926.772 303.978 927.178 303.899 927.551 303.74C927.934 303.581 928.265 303.357 928.545 303.068L929.259 303.81C928.895 304.202 928.456 304.505 927.943 304.72C927.43 304.935 926.86 305.042 926.235 305.042C925.507 305.042 924.858 304.888 924.289 304.58C923.729 304.263 923.29 303.819 922.973 303.25C922.665 302.681 922.511 302.032 922.511 301.304C922.511 300.576 922.665 299.932 922.973 299.372C923.29 298.803 923.729 298.359 924.289 298.042C924.849 297.715 925.488 297.552 926.207 297.552ZM928.517 300.8C928.48 300.128 928.256 299.601 927.845 299.218C927.434 298.826 926.893 298.63 926.221 298.63C925.568 298.63 925.022 298.826 924.583 299.218C924.154 299.61 923.897 300.137 923.813 300.8H928.517ZM935.585 297.552C936.276 297.552 936.892 297.711 937.433 298.028C937.975 298.345 938.395 298.789 938.693 299.358C938.992 299.927 939.141 300.581 939.141 301.318C939.141 302.046 938.992 302.695 938.693 303.264C938.404 303.824 937.989 304.263 937.447 304.58C936.915 304.888 936.304 305.042 935.613 305.042C934.988 305.042 934.437 304.911 933.961 304.65C933.485 304.389 933.112 304.015 932.841 303.53V305H931.539V294.612H932.841V299.064C933.112 298.579 933.481 298.205 933.947 297.944C934.423 297.683 934.969 297.552 935.585 297.552ZM935.333 303.908C935.809 303.908 936.234 303.796 936.607 303.572C936.99 303.348 937.284 303.035 937.489 302.634C937.704 302.233 937.811 301.78 937.811 301.276C937.811 300.781 937.704 300.333 937.489 299.932C937.275 299.531 936.981 299.218 936.607 298.994C936.234 298.77 935.809 298.658 935.333 298.658C934.857 298.658 934.428 298.77 934.045 298.994C933.672 299.218 933.378 299.531 933.163 299.932C932.949 300.333 932.841 300.781 932.841 301.276C932.841 301.789 932.949 302.247 933.163 302.648C933.378 303.04 933.672 303.348 934.045 303.572C934.428 303.796 934.857 303.908 935.333 303.908ZM940.958 297.594H942.26V305H940.958V297.594ZM941.602 294.64C941.835 294.64 942.026 294.719 942.176 294.878C942.334 295.037 942.414 295.237 942.414 295.48C942.414 295.723 942.334 295.923 942.176 296.082C942.026 296.241 941.835 296.32 941.602 296.32C941.368 296.32 941.172 296.241 941.014 296.082C940.864 295.923 940.79 295.723 940.79 295.48C940.79 295.237 940.864 295.037 941.014 294.878C941.172 294.719 941.368 294.64 941.602 294.64ZM948.775 304.51C948.206 304.874 947.627 305.056 947.039 305.056C946.451 305.056 945.975 304.883 945.611 304.538C945.247 304.183 945.065 303.651 945.065 302.942V298.84H944.015V297.846H945.065V295.858H946.381V297.846H948.649V298.84H946.381V302.704C946.381 303.115 946.456 303.409 946.605 303.586C946.755 303.763 946.979 303.852 947.277 303.852C947.632 303.852 948.015 303.735 948.425 303.502L948.775 304.51ZM961.252 297.552C960.879 297.16 960.445 296.857 959.95 296.642C959.455 296.418 958.947 296.306 958.424 296.306C957.733 296.306 957.099 296.474 956.52 296.81C955.941 297.146 955.484 297.603 955.148 298.182C954.812 298.751 954.644 299.381 954.644 300.072C954.644 300.753 954.812 301.383 955.148 301.962C955.484 302.541 955.941 302.998 956.52 303.334C957.099 303.67 957.733 303.838 958.424 303.838C958.937 303.838 959.441 303.735 959.936 303.53C960.431 303.315 960.869 303.026 961.252 302.662L962.064 303.544C961.569 304.029 960.995 304.412 960.342 304.692C959.689 304.963 959.026 305.098 958.354 305.098C957.421 305.098 956.567 304.879 955.792 304.44C955.017 303.992 954.406 303.385 953.958 302.62C953.51 301.855 953.286 301.01 953.286 300.086C953.286 299.171 953.51 298.336 953.958 297.58C954.415 296.815 955.036 296.213 955.82 295.774C956.604 295.335 957.467 295.116 958.41 295.116C959.091 295.116 959.749 295.247 960.384 295.508C961.028 295.76 961.583 296.119 962.05 296.586L961.252 297.552ZM968.339 305V303.964C967.788 304.692 966.925 305.056 965.749 305.056C965.236 305.056 964.783 304.958 964.391 304.762C964.008 304.566 963.71 304.295 963.495 303.95C963.29 303.605 963.187 303.217 963.187 302.788C963.187 302.125 963.43 301.603 963.915 301.22C964.41 300.828 965.096 300.627 965.973 300.618H968.325V300.268C968.325 299.745 968.162 299.344 967.835 299.064C967.518 298.775 967.051 298.63 966.435 298.63C965.688 298.63 964.928 298.896 964.153 299.428L963.607 298.532C964.139 298.187 964.629 297.939 965.077 297.79C965.534 297.631 966.076 297.552 966.701 297.552C967.625 297.552 968.339 297.781 968.843 298.238C969.347 298.686 969.604 299.316 969.613 300.128L969.627 305H968.339ZM966.015 303.978C966.622 303.978 967.135 303.833 967.555 303.544C967.984 303.245 968.241 302.853 968.325 302.368V301.626H966.155C965.567 301.626 965.128 301.715 964.839 301.892C964.559 302.069 964.419 302.349 964.419 302.732C964.419 303.115 964.564 303.418 964.853 303.642C965.142 303.866 965.53 303.978 966.015 303.978ZM973.254 299.19C973.496 298.658 973.842 298.257 974.29 297.986C974.738 297.706 975.27 297.561 975.886 297.552V298.812C975.13 298.784 974.518 298.98 974.052 299.4C973.585 299.82 973.319 300.385 973.254 301.094V305H971.952V297.594H973.254V299.19ZM984.199 294.612V305H982.897V303.53C982.617 304.025 982.239 304.407 981.763 304.678C981.297 304.939 980.751 305.07 980.125 305.07C979.425 305.07 978.805 304.911 978.263 304.594C977.731 304.267 977.316 303.819 977.017 303.25C976.719 302.671 976.569 302.013 976.569 301.276C976.569 300.548 976.719 299.904 977.017 299.344C977.316 298.775 977.731 298.331 978.263 298.014C978.805 297.697 979.421 297.538 980.111 297.538C980.746 297.538 981.301 297.669 981.777 297.93C982.253 298.191 982.627 298.569 982.897 299.064V294.612H984.199ZM980.391 303.95C980.877 303.95 981.306 303.838 981.679 303.614C982.062 303.39 982.361 303.077 982.575 302.676C982.79 302.275 982.897 301.822 982.897 301.318C982.897 300.805 982.79 300.347 982.575 299.946C982.361 299.545 982.062 299.232 981.679 299.008C981.306 298.784 980.877 298.672 980.391 298.672C979.906 298.672 979.472 298.789 979.089 299.022C978.716 299.246 978.422 299.559 978.207 299.96C977.993 300.361 977.885 300.814 977.885 301.318C977.885 301.822 977.993 302.275 978.207 302.676C978.422 303.077 978.716 303.39 979.089 303.614C979.472 303.838 979.906 303.95 980.391 303.95Z" fill="white"/>
<g filter="url(#filter7_b_185:139)">
<rect width="1440" height="801" fill="url(#paint0_radial_185:139)"/>
</g>
</g>
</g>
<defs>
<filter id="filter0_d_185:139" x="-4" y="0" width="1448" height="809" filterUnits="userSpaceOnUse" color-interpolation-filters="sRGB">
<feFlood flood-opacity="0" result="BackgroundImageFix"/>
<feColorMatrix in="SourceAlpha" type="matrix" values="0 0 0 0 0 0 0 0 0 0 0 0 0 0 0 0 0 0 127 0" result="hardAlpha"/>
<feOffset dy="4"/>
<feGaussianBlur stdDeviation="2"/>
<feComposite in2="hardAlpha" operator="out"/>
<feColorMatrix type="matrix" values="0 0 0 0 0 0 0 0 0 0 0 0 0 0 0 0 0 0 0.25 0"/>
<feBlend mode="normal" in2="BackgroundImageFix" result="effect1_dropShadow_185:139"/>
<feBlend mode="normal" in="SourceGraphic" in2="effect1_dropShadow_185:139" result="shape"/>
</filter>
<filter id="filter1_f_185:139" x="886" y="-49" width="692" height="692" filterUnits="userSpaceOnUse" color-interpolation-filters="sRGB">
<feFlood flood-opacity="0" result="BackgroundImageFix"/>
<feBlend mode="normal" in="SourceGraphic" in2="BackgroundImageFix" result="shape"/>
<feGaussianBlur stdDeviation="81" result="effect1_foregroundBlur_185:139"/>
</filter>
<filter id="filter2_f_185:139" x="446" y="-230" width="692" height="692" filterUnits="userSpaceOnUse" color-interpolation-filters="sRGB">
<feFlood flood-opacity="0" result="BackgroundImageFix"/>
<feBlend mode="normal" in="SourceGraphic" in2="BackgroundImageFix" result="shape"/>
<feGaussianBlur stdDeviation="81" result="effect1_foregroundBlur_185:139"/>
</filter>
<filter id="filter3_f_185:139" x="-142" y="-19" width="692" height="692" filterUnits="userSpaceOnUse" color-interpolation-filters="sRGB">
<feFlood flood-opacity="0" result="BackgroundImageFix"/>
<feBlend mode="normal" in="SourceGraphic" in2="BackgroundImageFix" result="shape"/>
<feGaussianBlur stdDeviation="81" result="effect1_foregroundBlur_185:139"/>
</filter>
<filter id="filter4_f_185:139" x="294" y="306" width="692" height="692" filterUnits="userSpaceOnUse" color-interpolation-filters="sRGB">
<feFlood flood-opacity="0" result="BackgroundImageFix"/>
<feBlend mode="normal" in="SourceGraphic" in2="BackgroundImageFix" result="shape"/>
<feGaussianBlur stdDeviation="81" result="effect1_foregroundBlur_185:139"/>
</filter>
<filter id="filter5_f_185:139" x="-210" y="431" width="692" height="692" filterUnits="userSpaceOnUse" color-interpolation-filters="sRGB">
<feFlood flood-opacity="0" result="BackgroundImageFix"/>
<feBlend mode="normal" in="SourceGraphic" in2="BackgroundImageFix" result="shape"/>
<feGaussianBlur stdDeviation="81" result="effect1_foregroundBlur_185:139"/>
</filter>
<filter id="filter6_f_185:139" x="1027" y="486" width="692" height="692" filterUnits="userSpaceOnUse" color-interpolation-filters="sRGB">
<feFlood flood-opacity="0" result="BackgroundImageFix"/>
<feBlend mode="normal" in="SourceGraphic" in2="BackgroundImageFix" result="shape"/>
<feGaussianBlur stdDeviation="81" result="effect1_foregroundBlur_185:139"/>
</filter>
<filter id="filter7_b_185:139" x="-31" y="-31" width="1502" height="863" filterUnits="userSpaceOnUse" color-interpolation-filters="sRGB">
<feFlood flood-opacity="0" result="BackgroundImageFix"/>
<feGaussianBlur in="BackgroundImage" stdDeviation="15.5"/>
<feComposite in2="SourceAlpha" operator="in" result="effect1_backgroundBlur_185:139"/>
<feBlend mode="normal" in="SourceGraphic" in2="effect1_backgroundBlur_185:139" result="shape"/>
</filter>
<radialGradient id="paint0_radial_185:139" cx="0" cy="0" r="1" gradientUnits="userSpaceOnUse" gradientTransform="translate(-35 -16.5001) rotate(28.7543) scale(1732.65 3637.09)">
<stop offset="0.00431303" stop-color="white" stop-opacity="0.95"/>
<stop offset="1" stop-color="white" stop-opacity="0.82"/>
</radialGradient>
</defs>
</svg>
