<svg width="1440" height="524" viewBox="0 0 1440 524" fill="none" xmlns="http://www.w3.org/2000/svg">
<mask id="mask0_185:184" style="mask-type:alpha" maskUnits="userSpaceOnUse" x="828" y="2" width="612" height="518">
<rect x="828" y="2" width="612" height="518" fill="#C4C4C4"/>
</mask>
<g mask="url(#mask0_185:184)">
<path d="M828.077 347.193V519.79H1003.09V347.193H828.077Z" fill="#FFB106"/>
<path d="M1003.02 519.767L828.006 347.171V519.767H1003.02Z" fill="#22347B"/>
<path d="M828 174.673V347.27H1003.02V174.673H828Z" fill="#007AFF"/>
<path d="M828.131 2.15198V174.749H1003.15V2.15198H828.131Z" fill="#FF3445"/>
<path d="M1003.02 347.117V519.714H1178.03V347.117H1003.02Z" fill="#007AFF"/>
<path d="M1178.04 347.17H1003.02V174.573C1099.63 174.573 1178.04 251.895 1178.04 347.17Z" fill="#22347B"/>
<path d="M1178.04 2.1814C1178.04 97.4564 1099.63 174.778 1003.02 174.778V2.1814H1178.04Z" fill="#FFB106"/>
<path d="M1177.95 347.041V519.638H1352.97V347.041H1177.95Z" fill="#22347B"/>
<path d="M1177.88 174.521V347.118H1352.89V174.521H1177.88Z" fill="#007AFF"/>
<path d="M1178.01 1.99985V174.596H1353.02V1.99985H1178.01Z" fill="#007AFF"/>
<path d="M1527.86 433.469C1527.86 481.208 1488.76 519.767 1440.35 519.767H1352.85V347.17H1440.35C1488.76 347.17 1527.86 385.729 1527.86 433.469Z" fill="#007AFF"/>
<path d="M1352.85 174.573V347.17H1527.86L1352.85 174.573Z" fill="#22347B"/>
<path d="M1352.86 2.04503V174.642H1440.37V2.04503H1352.86Z" fill="#FFB106"/>
<path d="M828.006 347.17L915.514 260.872L828.006 174.574V347.17Z" fill="#FFB106"/>
<path d="M1178.04 519.767L1265.34 433.469L1178.04 347.17V519.767Z" fill="#FF3445"/>
<path d="M1352.85 519.767L1265.34 433.469L1352.85 347.17V519.767Z" fill="#FF3445"/>
<path d="M880.623 399.013V467.97H950.547V399.013H880.623Z" fill="white"/>
<path d="M1462.08 439.384C1462.08 462.846 1442.84 482.023 1418.84 482.023C1418.84 458.562 1438.08 439.384 1462.08 439.384Z" fill="white"/>
<path d="M1412.01 439.385C1412.01 462.846 1392.77 482.024 1368.78 482.024C1368.78 458.562 1388.01 439.385 1412.01 439.385Z" fill="white"/>
<path d="M1462.08 427.348C1462.08 403.886 1442.84 384.709 1418.84 384.709C1418.84 408.375 1438.08 427.348 1462.08 427.348Z" fill="white"/>
<path d="M1412.01 427.349C1412.01 403.887 1392.77 384.709 1368.78 384.709C1368.78 408.375 1388.01 427.349 1412.01 427.349Z" fill="white"/>
<path d="M1352.85 347.171H1440.35L1352.85 260.872V347.171Z" fill="#FF3445"/>
<path d="M1265.34 174.778C1313.67 174.778 1352.85 136.141 1352.85 88.4797C1352.85 40.8185 1313.67 2.1814 1265.34 2.1814C1217.01 2.1814 1177.83 40.8185 1177.83 88.4797C1177.83 136.141 1217.01 174.778 1265.34 174.778Z" fill="white"/>
<path d="M1300.3 88.479C1300.3 107.452 1284.58 122.958 1265.34 122.958C1246.1 122.958 1230.38 107.452 1230.38 88.479C1230.38 69.5056 1246.1 54.0005 1265.34 54.0005C1284.78 54.0005 1300.3 69.3016 1300.3 88.479Z" fill="#FFB106"/>
<path d="M1300.3 260.872C1300.3 279.845 1284.58 295.35 1265.34 295.35C1246.1 295.35 1230.38 279.845 1230.38 260.872C1230.38 241.898 1246.1 226.393 1265.34 226.393C1284.78 226.393 1300.3 241.898 1300.3 260.872Z" fill="#22347B"/>
<path d="M1265.34 249.039C1258.72 249.039 1253.34 254.344 1253.34 260.872C1253.34 267.401 1258.72 272.705 1265.34 272.705C1271.96 272.705 1277.34 267.401 1277.34 260.872C1277.34 254.344 1271.96 249.039 1265.34 249.039Z" fill="#FF3445"/>
<path d="M828.006 174.572L1003.02 2.17969H828.006V174.572Z" fill="#22347B"/>
<path d="M883.034 120.306L947.993 56.449H883.034V120.306Z" fill="#007AFF"/>
<path d="M1155.69 433.469C1155.69 468.967 1126.53 497.734 1090.53 497.734C1054.53 497.734 1025.36 468.967 1025.36 433.469C1025.36 397.97 1054.53 369.204 1090.53 369.204C1126.53 369.204 1155.69 397.97 1155.69 433.469Z" fill="#FF3445"/>
<path d="M1125.49 433.469C1125.49 452.442 1109.77 467.948 1090.53 467.948C1071.29 467.948 1055.57 452.442 1055.57 433.469C1055.57 414.496 1071.29 398.99 1090.53 398.99C1109.77 398.99 1125.49 414.496 1125.49 433.469Z" fill="#FFB106"/>
<path d="M1090.53 2.1814C1090.53 49.9209 1051.43 88.4797 1003.02 88.4797V2.1814H1090.53Z" fill="#007AFF"/>
<path d="M1090.53 347.171H1003.02V260.872C1051.43 260.872 1090.53 299.635 1090.53 347.171Z" fill="#FFB106"/>
</g>
<path d="M169.07 0.789062H-3V174.985H169.07V0.789062Z" fill="#007AFF"/>
<path d="M340.936 174.985H169.07V87.8871C169.07 39.7052 207.511 0.789062 254.901 0.789062C302.495 0.789062 340.936 39.7052 340.936 87.8871V174.985Z" fill="#007AFF"/>
<path d="M513.005 0.789062H340.936V174.985H513.005V0.789062Z" fill="#007AFF"/>
<path d="M169.07 174.985H-3V349.181H169.07V174.985Z" fill="#22347B"/>
<path d="M83.0348 348.975C130.55 348.975 169.07 309.98 169.07 261.877C169.07 213.774 130.55 174.779 83.0348 174.779C35.5191 174.779 -3 213.774 -3 261.877C-3 309.98 35.5191 348.975 83.0348 348.975Z" fill="white"/>
<path d="M341.139 174.985H169.07V349.181H341.139V174.985Z" fill="#007AFF"/>
<path d="M254.901 261.877L169.07 348.976V174.985H340.936L254.901 261.877Z" fill="#FF3445"/>
<path d="M513.005 174.985H340.936V349.181H513.005V174.985Z" fill="#22347B"/>
<path d="M169.07 348.975H-3V523.171H169.07V348.975Z" fill="#007AFF"/>
<path d="M117.408 401.276H48.6615V470.872H117.408V401.276Z" fill="#FFB106"/>
<path d="M83.0347 296.675C64.1193 296.675 48.6615 281.027 48.6615 261.877C48.6615 242.728 64.1193 227.079 83.0347 227.079C101.95 227.079 117.408 242.728 117.408 261.877C117.408 281.233 101.95 296.675 83.0347 296.675Z" fill="#FFB106"/>
<path d="M254.901 122.685C235.986 122.685 220.528 107.036 220.528 87.8872C220.528 68.7379 235.986 53.0891 254.901 53.0891C273.816 53.0891 289.274 68.7379 289.274 87.8872C289.274 107.036 274.02 122.685 254.901 122.685Z" fill="#22347B"/>
<path d="M426.971 159.954C387.716 159.954 355.783 127.627 355.783 87.887C355.783 48.1473 387.716 15.8201 426.971 15.8201C466.225 15.8201 498.158 48.1473 498.158 87.887C498.158 127.627 466.225 159.954 426.971 159.954Z" fill="#FFB106"/>
<path d="M426.971 122.685C408.055 122.685 392.597 107.036 392.597 87.8872C392.597 68.7379 408.055 53.0891 426.971 53.0891C445.886 53.0891 461.344 68.7379 461.344 87.8872C461.344 107.036 445.886 122.685 426.971 122.685Z" fill="#22347B"/>
<path d="M117.408 53.0891H48.6615V122.685H117.408V53.0891Z" fill="#FFB106"/>
<path d="M341.139 348.975H169.07V523.171H341.139V348.975Z" fill="#007AFF"/>
<path d="M513.005 348.975H340.936V523.171H513.005V348.975Z" fill="#007AFF"/>
<path d="M169.07 0.789062H-3V87.8871H169.07V0.789062Z" fill="#22347B"/>
<path d="M169.07 348.975L340.936 523.171V348.975H169.07Z" fill="#22347B"/>
<path d="M211.985 392.627L298.02 479.52V392.627H211.985Z" fill="#FFB106"/>
<path d="M513.005 348.975H340.936V436.073H513.005V348.975Z" fill="#FFB106"/>
<path d="M461.344 401.276H392.597V470.872H461.344V401.276Z" fill="#FF3445"/>
<path d="M420.869 332.915C397.479 332.915 378.36 313.765 378.36 289.88C401.953 289.88 420.869 309.236 420.869 332.915Z" fill="white"/>
<path d="M420.869 283.086C397.479 283.086 378.36 263.936 378.36 240.051C401.953 240.051 420.869 259.406 420.869 283.086Z" fill="white"/>
<path d="M420.869 233.257C397.479 233.257 378.36 214.108 378.36 190.223C401.953 190.223 420.869 209.578 420.869 233.257Z" fill="white"/>
<path d="M432.869 332.915C456.259 332.915 475.378 313.765 475.378 289.88C451.784 289.88 432.869 309.236 432.869 332.915Z" fill="white"/>
<path d="M432.869 283.086C456.259 283.086 475.378 263.936 475.378 240.051C451.784 240.051 432.869 259.406 432.869 283.086Z" fill="white"/>
<path d="M432.869 233.256C456.259 233.256 475.378 214.107 475.378 190.222C451.784 190.222 432.869 209.577 432.869 233.256Z" fill="white"/>
<path d="M440.191 87.8873C440.191 80.4747 434.293 74.5034 426.971 74.5034C419.648 74.5034 413.75 80.4747 413.75 87.8873C413.75 95.2999 419.648 101.271 426.971 101.271C434.293 101.271 440.191 95.2999 440.191 87.8873Z" fill="#FF3445"/>
<path d="M687.274 1.79688H513.005V175.526H687.274V1.79688Z" fill="#007AFF"/>
<path d="M861.543 1.79688H687.274V175.526H861.543V1.79688Z" fill="#007AFF"/>
<path d="M1035.61 1.79688H861.338V175.526H1035.61V1.79688Z" fill="#22347B"/>
<path d="M687.274 175.526H513.005V349.255H687.274V175.526Z" fill="#FFB106"/>
<path d="M861.543 175.526H687.274V349.255H861.543V175.526Z" fill="#FFB106"/>
<path d="M1035.61 175.526H861.338V349.255H1035.61V175.526Z" fill="#FF3445"/>
<path d="M513.005 522.779V349.05H687.274C687.274 444.95 609.203 522.779 513.005 522.779Z" fill="#007AFF"/>
<path d="M861.543 349.05H687.274V522.779H861.543V349.05Z" fill="#FF3445"/>
<path d="M1035.61 522.779C939.408 522.779 861.338 444.95 861.338 349.05H1035.61V522.779Z" fill="#FFB106"/>
<path d="M513.005 1.79688L600.14 88.6615L687.274 1.79688H513.005Z" fill="#FF3445"/>
<path d="M513.005 175.526L600.14 88.6614L687.274 175.526H513.005Z" fill="#FFB106"/>
<path d="M810.045 53.957H740.42V123.367H810.045V53.957Z" fill="white"/>
<path d="M769.259 506.967C745.57 506.967 726.207 487.869 726.207 464.048C749.896 464.254 769.259 483.352 769.259 506.967Z" fill="white"/>
<path d="M769.259 457.271C745.57 457.271 726.207 438.174 726.207 414.353C749.896 414.558 769.259 433.656 769.259 457.271Z" fill="white"/>
<path d="M769.259 407.576C745.57 407.576 726.207 388.478 726.207 364.657C749.896 364.862 769.259 383.96 769.259 407.576Z" fill="white"/>
<path d="M781.413 506.967C805.102 506.967 824.465 487.869 824.465 464.048C800.57 464.254 781.413 483.352 781.413 506.967Z" fill="white"/>
<path d="M781.413 457.271C805.102 457.271 824.465 438.174 824.465 414.353C800.57 414.558 781.413 433.656 781.413 457.271Z" fill="white"/>
<path d="M781.413 407.576C805.102 407.576 824.465 388.478 824.465 364.657C800.57 364.863 781.413 383.96 781.413 407.576Z" fill="white"/>
<path d="M861.337 175.115H687.274V348.639L861.337 175.115Z" fill="#007AFF"/>
<path d="M687.274 175.115V261.98L774.409 175.115H687.274Z" fill="#22347B"/>
<path d="M600.14 348.845C648.263 348.845 687.274 309.954 687.274 261.98C687.274 214.006 648.263 175.115 600.14 175.115C552.017 175.115 513.005 214.006 513.005 261.98C513.005 309.954 552.017 348.845 600.14 348.845Z" fill="white"/>
<path d="M600.14 296.891C580.983 296.891 565.327 281.284 565.327 262.186C565.327 243.088 580.983 227.481 600.14 227.481C619.297 227.481 634.952 243.088 634.952 262.186C634.952 281.489 619.297 296.891 600.14 296.891Z" fill="#FF3445"/>
<path d="M948.472 296.891C929.315 296.891 913.659 281.284 913.659 262.186C913.659 243.088 929.315 227.481 948.472 227.481C967.629 227.481 983.284 243.088 983.284 262.186C983.284 281.489 967.629 296.891 948.472 296.891Z" fill="#22347B"/>
<path d="M960.419 262.186C960.419 255.614 955.064 250.275 948.472 250.275C941.88 250.275 936.524 255.614 936.524 262.186C936.524 268.757 941.88 274.096 948.472 274.096C955.064 274.096 960.419 268.757 960.419 262.186Z" fill="#007AFF"/>
<path d="M1035.61 435.914C987.404 435.914 948.472 397.103 948.472 349.05H1035.61V435.914Z" fill="#22347B"/>
<path d="M513.005 435.914V349.05H600.14C600.14 397.103 561.207 435.914 513.005 435.914Z" fill="#22347B"/>
<path d="M740.42 123.367L810.045 53.957V123.367H740.42Z" fill="#FF3445"/>
<path d="M861.338 1.79688L1035.61 175.526V1.79688H861.338Z" fill="#FFB106"/>
<path d="M913.659 53.957L983.284 123.367V53.957H913.659Z" fill="#FF3445"/>
</svg>
