<svg width="77" height="83" viewBox="0 0 77 83" fill="none" xmlns="http://www.w3.org/2000/svg">
<circle cx="8.5" cy="6.5" r="6.5" fill="#C7A1C7"/>
<circle cx="19.5" cy="70.5" r="11.5" fill="#C7A1C7"/>
<circle cx="58" cy="78" r="5" fill="#C7A1C7"/>
<circle cx="64.5" cy="14.5" r="5.5" fill="#C7A1C7"/>
<path d="M30.4792 8.41666C17.1903 8.41666 6.41668 19.1902 6.41668 32.4792C6.41668 36.3099 7.33426 39.9161 8.92559 43.1308L6.50651 52.8007C5.95468 55.0049 7.95026 57.0004 10.1544 56.4486L19.8243 54.0295C23.0423 55.6241 26.6484 56.5417 30.4792 56.5417C43.7681 56.5417 54.5417 45.7681 54.5417 32.4792C54.5417 19.1902 43.7681 8.41666 30.4792 8.41666Z" fill="#DCCFDC"/>
<path d="M66.8937 54.4562L70.4903 68.8423C71.0421 71.0465 69.0465 73.0421 66.8424 72.4902L52.4562 68.8937L66.8937 54.4562Z" fill="#3A125B"/>
<path d="M53.5054 25.4946C54.1727 27.7084 54.5417 30.0505 54.5417 32.4792C54.5417 45.7681 43.7681 56.5417 30.4792 56.5417C28.0505 56.5417 25.7084 56.1727 23.4946 55.5054C26.488 65.387 35.6606 72.5833 46.5208 72.5833C59.8098 72.5833 70.5833 61.8098 70.5833 48.5208C70.5833 37.6606 63.387 28.488 53.5054 25.4946Z" fill="#3A125B"/>
<path d="M41.7083 30.875H22.4583C20.6841 30.875 19.25 29.4377 19.25 27.6667C19.25 25.8957 20.6841 24.4583 22.4583 24.4583H41.7083C43.4825 24.4583 44.9167 25.8957 44.9167 27.6667C44.9167 29.4377 43.4825 30.875 41.7083 30.875Z" fill="#3A125B"/>
<path d="M35.2917 43.7083H22.4583C20.6841 43.7083 19.25 42.271 19.25 40.5C19.25 38.729 20.6841 37.2917 22.4583 37.2917H35.2917C37.0659 37.2917 38.5 38.729 38.5 40.5C38.5 42.271 37.0659 43.7083 35.2917 43.7083Z" fill="#3A125B"/>
</svg>
