<svg width="78" height="91" viewBox="0 0 78 91" fill="none" xmlns="http://www.w3.org/2000/svg">
<circle cx="16.5" cy="10.5" r="6.5" fill="#C7A1C7"/>
<circle cx="16.5" cy="74.5" r="11.5" fill="#C7A1C7"/>
<circle cx="66" cy="86" r="5" fill="#C7A1C7"/>
<circle cx="72.5" cy="18.5" r="5.5" fill="#C7A1C7"/>
<path d="M43.9447 42.3565C43.9447 36.4275 37.3997 37.236 37.3997 34.1464C37.3997 32.3273 38.8306 32.1348 39.3247 32.1348C39.8124 32.1348 40.2455 32.2503 40.6113 32.4171C41.4711 32.8053 42.4914 32.446 43.0368 31.6728C43.7362 30.6846 43.3737 29.2954 42.27 28.7981C41.6636 28.5254 40.9096 28.3072 39.9953 28.2206V27.3608C39.9953 26.5683 39.3536 25.9266 38.5611 25.9266C37.7687 25.9266 37.127 26.5683 37.127 27.3608V28.5222C34.724 29.3243 33.1647 31.522 33.1647 34.3357C33.1647 40.5566 39.6295 39.4337 39.6295 42.6677C39.6295 43.2901 39.3344 44.6473 37.7302 44.6473C37.0179 44.6473 36.4019 44.4451 35.9014 44.1853C35.0512 43.7393 33.9957 44.0698 33.4535 44.8622L33.3957 44.9456C32.7701 45.86 33.0236 47.1433 33.9861 47.692C34.7978 48.1508 35.7891 48.5101 36.9826 48.6352V49.6426C36.9826 50.4351 37.6243 51.0768 38.4168 51.0768C39.2092 51.0768 39.8509 50.4351 39.8509 49.6426V48.3786C42.5138 47.5604 43.9447 45.1381 43.9447 42.3565Z" fill="#3A125B"/>
<path d="M68.0039 19.7793L65.6233 21.2905C65.3377 20.8445 64.9848 20.4338 64.6768 20.0007C64.6159 19.9045 64.5742 19.8018 64.5068 19.7088C64.372 19.5227 64.2084 19.359 64.0705 19.1762C63.5764 18.5281 63.0662 17.896 62.5208 17.2833C62.1166 16.8277 61.6931 16.3945 61.2664 15.9646C60.814 15.5122 60.3648 15.0631 59.8836 14.6364C59.2227 14.046 58.5329 13.5038 57.8302 12.9745C57.5255 12.7467 57.2399 12.5093 56.9255 12.2911C51.5804 8.54054 45.1637 6.41663 38.5 6.41663C31.4032 6.41663 24.6208 9.07633 18.3421 14.3284C15.6214 16.5999 15.2621 20.6488 17.5368 23.3663C19.8083 26.0837 23.8572 26.4463 26.5747 24.1715C30.537 20.8605 34.4351 19.25 38.5 19.25C39.0262 19.25 39.546 19.3013 40.0657 19.343C40.194 19.3623 40.3095 19.4104 40.4379 19.4232C41.6506 19.5355 42.8634 19.7633 44.0601 20.1098C44.0697 20.113 44.0793 20.1162 44.0922 20.1194C44.6183 20.2734 45.1413 20.4595 45.661 20.6616C46.0172 20.806 46.3701 20.9632 46.7166 21.1268C46.9283 21.2231 47.1433 21.3129 47.3518 21.4188C47.9261 21.7172 48.4812 22.0476 49.0234 22.4005C49.094 22.4455 49.1645 22.484 49.2351 22.5289C51.1024 23.7833 52.7643 25.365 54.1118 27.2323C54.1952 27.3478 54.3075 27.4312 54.3973 27.5403C54.5385 27.7424 54.7021 27.9285 54.8337 28.1338L52.3376 29.7187C50.8746 30.646 51.2596 32.8757 52.9472 33.264L64.9431 36.0071C66.4703 36.3568 67.9878 35.3943 68.3215 33.8639L70.9491 21.8423C71.3213 20.1515 69.4669 18.8521 68.0039 19.7793Z" fill="#DCCFDC"/>
<path d="M61.5134 49.344C58.6419 47.265 54.6283 47.9067 52.5525 50.7781C49.0137 55.6676 44.8108 57.7498 38.5 57.7498C37.6177 57.7498 36.7579 57.6279 35.898 57.5124C35.8531 57.506 35.8114 57.4835 35.7633 57.4771C35.1858 57.4001 34.6083 57.2942 34.034 57.1627C33.3795 57.0055 32.7282 56.8355 32.0897 56.6109C30.9315 56.213 29.7926 55.7029 28.6921 55.0677C25.7084 53.3448 23.3727 50.945 21.7429 48.1762L24.3031 46.6971C25.8014 45.8309 25.5126 43.5882 23.8411 43.1295L11.9703 39.889C10.4591 39.4752 8.9031 40.3767 8.50527 41.891L5.37715 53.794C4.9376 55.4687 6.73748 56.8419 8.23577 55.9756L10.6805 54.5607C13.398 59.2096 17.3057 63.2457 22.3043 66.1332C23.4401 66.7909 24.6047 67.346 25.7821 67.8497C26.1351 68.0742 26.5169 68.27 26.9211 68.4272C30.6171 69.8549 34.512 70.5832 38.5 70.5832C48.9688 70.5832 56.9639 66.5663 62.9475 58.3049C65.0265 55.4334 64.3816 51.4198 61.5134 49.344Z" fill="#DCCFDC"/>
</svg>
