<svg width="95" height="89" viewBox="0 0 95 89" fill="none" xmlns="http://www.w3.org/2000/svg">
<g filter="url(#filter0_d_231:244)">
<circle cx="15" cy="70" r="11" fill="#C7A1C7"/>
<circle cx="73.5" cy="12.5" r="7.5" fill="#C7A1C7"/>
<ellipse cx="29" cy="8.5" rx="8" ry="8.5" fill="#C7A1C7"/>
<path d="M76.508 29.2827C72.8569 19.5582 63.5014 12.625 52.5 12.625C39.3073 12.625 28.4503 22.5837 27.0098 35.3881C19.6017 36.8094 14 43.3031 14 51.125C14 59.9832 21.1835 67.1667 30.0417 67.1667H71.75C82.3824 67.1667 91 58.5491 91 47.9167C91 38.9301 84.8336 31.4066 76.508 29.2827Z" fill="#DCCFDC"/>
<path d="M65.3333 38.2917C65.3333 31.2013 59.5904 25.4583 52.5 25.4583C45.4096 25.4583 39.6667 31.2013 39.6667 38.2917C37.9021 38.2917 36.4583 39.7354 36.4583 41.5V54.3333C36.4583 56.0979 37.9021 57.5417 39.6667 57.5417H65.3333C67.0979 57.5417 68.5417 56.0979 68.5417 54.3333V41.5C68.5417 39.7354 67.0979 38.2917 65.3333 38.2917ZM52.5 51.9271C50.2862 51.9271 48.4896 50.1304 48.4896 47.9167C48.4896 45.7029 50.2862 43.9063 52.5 43.9063C54.7137 43.9063 56.5104 45.7029 56.5104 47.9167C56.5104 50.1304 54.7137 51.9271 52.5 51.9271ZM46.0833 38.2917C46.0833 34.7625 48.9708 31.875 52.5 31.875C56.0292 31.875 58.9167 34.7625 58.9167 38.2917H46.0833Z" fill="#3A125B"/>
</g>
<defs>
<filter id="filter0_d_231:244" x="0" y="0" width="95" height="89" filterUnits="userSpaceOnUse" color-interpolation-filters="sRGB">
<feFlood flood-opacity="0" result="BackgroundImageFix"/>
<feColorMatrix in="SourceAlpha" type="matrix" values="0 0 0 0 0 0 0 0 0 0 0 0 0 0 0 0 0 0 127 0" result="hardAlpha"/>
<feOffset dy="4"/>
<feGaussianBlur stdDeviation="2"/>
<feComposite in2="hardAlpha" operator="out"/>
<feColorMatrix type="matrix" values="0 0 0 0 0 0 0 0 0 0 0 0 0 0 0 0 0 0 0.25 0"/>
<feBlend mode="normal" in2="BackgroundImageFix" result="effect1_dropShadow_231:244"/>
<feBlend mode="normal" in="SourceGraphic" in2="effect1_dropShadow_231:244" result="shape"/>
</filter>
</defs>
</svg>
