<svg width="82" height="83" viewBox="0 0 82 83" fill="none" xmlns="http://www.w3.org/2000/svg">
<circle cx="6.5" cy="6.5" r="6.5" fill="#C7A1C7"/>
<circle cx="17.5" cy="70.5" r="11.5" fill="#C7A1C7"/>
<circle cx="56" cy="78" r="5" fill="#C7A1C7"/>
<circle cx="62.5" cy="14.5" r="5.5" fill="#C7A1C7"/>
<path d="M82 13.8334H37.0833C33.5381 13.8334 30.6667 16.7048 30.6667 20.25V52.3334H82V13.8334Z" fill="#DCCFDC"/>
<path d="M64.2292 46.1486C70.4309 46.1486 75.4583 40.4029 75.4583 33.3153C75.4583 26.2276 70.4309 20.4819 64.2292 20.4819C58.0275 20.4819 53 26.2276 53 33.3153C53 40.4029 58.0275 46.1486 64.2292 46.1486Z" fill="#3A125B"/>
<path d="M40.2916 36.2917C42.0636 36.2917 43.5 34.8552 43.5 33.0833C43.5 31.3114 42.0636 29.875 40.2916 29.875C38.5197 29.875 37.0833 31.3114 37.0833 33.0833C37.0833 34.8552 38.5197 36.2917 40.2916 36.2917Z" fill="#3A125B"/>
<path d="M5 33.0833L14.0732 24.0102C16.4826 21.6007 19.7455 20.25 23.1495 20.25H30.6667V45.9905L41.9119 41.441C44.8186 40.2636 48.1489 40.9405 50.3658 43.1607C53.5838 46.3787 53.3817 51.6564 49.9263 54.6177L38.4148 64.4833C35.4856 66.9922 31.7511 68.3654 27.8947 68.3461L5 68.2306V33.0833Z" fill="#3A125B"/>
</svg>
