<svg width="80" height="81" viewBox="0 0 80 81" fill="none" xmlns="http://www.w3.org/2000/svg">
<circle cx="69.5" cy="12.5" r="7.5" fill="#C7A1C7"/>
<ellipse cx="25" cy="8.5" rx="8" ry="8.5" fill="#C7A1C7"/>
<path d="M63.9583 14.8334H54.3333L51.1892 21.25L47.9167 14.8334H35.0833L31.5927 21.25L28.6667 14.8334H19.0417C13.7254 14.8334 9.41666 19.1422 9.41666 24.4584V30.875L15.8333 34.0834L9.41666 37.2917V43.7084L15.8333 46.9167L9.41666 50.125V56.5417C9.41666 61.8579 13.7254 66.1667 19.0417 66.1667H28.6667L31.814 59.75L35.0833 66.1667H47.9167L51.1122 59.75L54.3333 66.1667H63.9583C69.2745 66.1667 73.5833 61.8579 73.5833 56.5417V50.125L67.1667 46.9167L73.5833 43.7084V37.2917L67.1667 34.0834L73.5833 30.875V24.4584C73.5833 19.1422 69.2745 14.8334 63.9583 14.8334Z" fill="#DCCFDC"/>
<path d="M73.5833 30.875H58.148C57.1406 29.1618 55.8605 27.5929 54.3333 26.2262V14.8334H47.9167V27.7373C47.9167 28.7415 48.3883 29.6912 49.1904 30.2975C52.4597 32.768 54.3333 36.4864 54.3333 40.5C54.3333 44.5137 52.4597 48.2321 49.1904 50.7025C48.3883 51.3089 47.9167 52.2554 47.9167 53.2628V66.1667H54.3333V54.7739C55.8605 53.4104 57.1406 51.8415 58.148 50.125H73.5833V43.7084H60.4548C60.6345 42.656 60.75 41.5909 60.75 40.5C60.75 39.4092 60.6345 38.344 60.4548 37.2917H73.5833V30.875Z" fill="#3A125B"/>
<path d="M28.6667 26.2262C27.1395 27.5929 25.8594 29.1618 24.8519 30.875H9.41666V37.2917H22.5452C22.3655 38.344 22.25 39.4092 22.25 40.5C22.25 41.5909 22.3655 42.656 22.5452 43.7084H9.41666V50.125H24.8519C25.8594 51.8383 27.1395 53.4072 28.6667 54.7739V66.1667H35.0833V53.2628C35.0833 52.2586 34.6117 51.3089 33.8096 50.7025C30.5403 48.2321 28.6667 44.5137 28.6667 40.5C28.6667 36.4864 30.5403 32.768 33.8096 30.2975C34.6117 29.6912 35.0833 28.7447 35.0833 27.7373V14.8334H28.6667V26.2262Z" fill="#3A125B"/>
<circle cx="11" cy="70" r="11" fill="#C7A1C7"/>
</svg>
