<svg width="79" height="90" viewBox="0 0 79 90" fill="none" xmlns="http://www.w3.org/2000/svg">
<circle cx="17.5" cy="9.5" r="6.5" fill="#C7A1C7"/>
<circle cx="17.5" cy="73.5" r="11.5" fill="#C7A1C7"/>
<circle cx="67" cy="85" r="5" fill="#C7A1C7"/>
<circle cx="73.5" cy="17.5" r="5.5" fill="#C7A1C7"/>
<path d="M67.375 51.3333C67.375 49.2319 66.0211 47.4641 64.1442 46.8096C64.1506 46.1808 64.1667 45.5744 64.1667 44.9167C64.1667 30.7422 52.6744 19.25 38.5 19.25C24.3256 19.25 12.8333 30.7422 12.8333 44.9167C12.8333 45.5487 12.8815 46.1679 12.9264 46.7871C11.0142 47.4224 9.625 49.2062 9.625 51.3333C9.625 53.9898 11.781 56.1458 14.4375 56.1458C14.768 56.1458 15.0888 56.1138 15.4 56.0496C19.5484 64.6415 28.32 70.5833 38.5 70.5833C55.8763 70.5833 61.7123 66.7109 63.4705 56.0528C65.6938 55.6293 67.375 53.6818 67.375 51.3333Z" fill="#DCCFDC"/>
<path d="M48.125 12.8333C48.125 9.28811 45.2535 6.41666 41.7083 6.41666H38.5C22.5514 6.41666 9.625 19.343 9.625 35.2917V44.9167C9.625 46.6877 11.0623 48.125 12.8333 48.125C14.6043 48.125 16.0417 47.1849 16.0417 44.9167C16.0417 39.655 20.3505 35.2917 25.6667 35.2917H51.3333C56.6495 35.2917 60.9583 39.6004 60.9583 44.9167C60.9583 46.7903 62.3957 48.125 64.1667 48.125C65.9377 48.125 67.375 46.6877 67.375 44.9167V35.2917C67.375 12.8333 48.125 12.8333 48.125 12.8333Z" fill="#3A125B"/>
<path d="M38.5 70.5833C42.0438 70.5833 44.9166 67.7105 44.9166 64.1667C44.9166 60.6228 42.0438 57.75 38.5 57.75C34.9562 57.75 32.0833 60.6228 32.0833 64.1667C32.0833 67.7105 34.9562 70.5833 38.5 70.5833Z" fill="#3A125B"/>
<path d="M60.9583 51.3333V57.75C60.9583 61.2952 58.0869 64.1667 54.5417 64.1667H38.5V70.5833H54.5417C61.6289 70.5833 67.375 64.8372 67.375 57.75V51.3333H60.9583Z" fill="#3A125B"/>
<path d="M67.375 57.75H60.9583V38.5H67.375C70.9202 38.5 73.7916 41.3715 73.7916 44.9167V51.3333C73.7916 54.8785 70.9202 57.75 67.375 57.75Z" fill="#3A125B"/>
</svg>
